<?xml version="1.0" standalone="no"?>
<!DOCTYPE svg PUBLIC "-//W3C//DTD SVG 20010904//EN"
 "http://www.w3.org/TR/2001/REC-SVG-20010904/DTD/svg10.dtd">
<svg version="1.0" xmlns="http://www.w3.org/2000/svg"
 width="1002.000000pt" height="1000.000000pt" viewBox="0 0 1002.000000 1000.000000"
 preserveAspectRatio="xMidYMid meet">

<g transform="translate(0.000000,1000.000000) scale(0.100000,-0.100000)"
fill="#000000" stroke="none">
<path d="M5200 8972 c-970 -386 -1395 -1003 -1284 -1864 15 -112 29 -174 115
-501 103 -388 -7 -753 -328 -1088 -209 -217 -504 -424 -864 -605 l-108 -54 40
-87 c22 -49 44 -92 48 -96 17 -17 361 169 571 309 494 327 788 700 870 1104
43 213 22 486 -55 700 -21 57 -20 52 -49 194 -114 541 0 973 345 1313 196 193
478 364 797 482 42 16 89 34 104 40 l27 10 -33 97 c-18 54 -37 99 -42 100 -5
2 -74 -23 -154 -54z"/>
<path d="M8220 9013 c-197 -68 -469 -195 -623 -291 -292 -180 -536 -431 -662
-682 -159 -315 -196 -738 -100 -1140 14 -58 27 -112 28 -120 2 -8 15 -53 30
-99 45 -138 60 -248 54 -401 -6 -161 -32 -262 -106 -415 -91 -187 -257 -386
-461 -549 -171 -137 -546 -368 -727 -448 l-43 -19 48 -94 c25 -52 51 -95 57
-95 17 0 340 176 453 247 441 276 742 580 884 892 140 306 152 610 38 976 -57
186 -81 324 -87 513 -11 327 46 549 201 782 201 301 566 555 1036 721 36 12
67 24 68 25 6 4 -61 204 -68 203 -3 0 -12 -3 -20 -6z"/>
<path d="M9360 5203 c-808 -46 -1720 -234 -2525 -520 l-220 -78 -2142 -5
c-1739 -4 -2144 -7 -2155 -18 -7 -7 -13 -33 -13 -57 0 -60 33 -92 143 -140 48
-21 92 -43 98 -49 7 -6 62 -209 124 -451 62 -242 122 -457 133 -477 40 -74
-107 -68 1796 -66 l1710 3 30 29 c17 16 37 48 46 70 13 38 158 533 221 759
l27 98 71 39 c176 98 537 240 857 338 683 210 1399 340 1979 359 102 3 195 10
208 14 31 12 52 64 41 102 -15 53 -28 57 -209 55 -91 -1 -190 -3 -220 -5z"/>
<path d="M6410 2815 l0 -445 140 0 140 0 0 119 c0 66 4 122 8 125 4 2 36 -51
70 -120 l62 -124 150 0 151 0 -25 43 c-14 23 -56 96 -94 162 l-70 120 35 68
c19 38 54 105 79 149 24 44 44 85 44 89 0 6 -64 8 -147 7 l-146 -3 -47 -109
c-25 -61 -52 -112 -58 -114 -9 -3 -12 57 -12 237 l0 241 -140 0 -140 0 0 -445z"/>
<path d="M2618 3118 l-3 -103 -42 -3 -43 -3 0 -115 0 -114 33 0 c50 0 57 -14
57 -110 0 -149 39 -235 130 -284 57 -31 155 -45 224 -32 l36 7 0 114 0 115
-44 0 c-60 0 -71 16 -71 109 l0 76 58 3 58 3 -3 112 -3 112 -57 3 -58 3 0 104
0 105 -135 0 -134 0 -3 -102z"/>
<path d="M694 3006 c-17 -8 -40 -25 -51 -40 -12 -14 -24 -26 -27 -26 -3 0 -12
16 -20 35 l-15 35 -130 0 -131 0 0 -320 0 -321 138 3 137 3 5 193 c5 177 7
195 24 208 25 18 29 18 57 -5 23 -19 24 -23 27 -210 l3 -191 135 0 134 0 0
213 c0 159 -4 228 -15 272 -28 106 -96 165 -190 165 -27 -1 -64 -7 -81 -14z"/>
<path d="M1335 3007 c-150 -50 -238 -164 -239 -311 0 -82 15 -133 56 -194 108
-158 369 -193 537 -72 55 40 108 115 122 174 39 160 -37 314 -190 384 -45 21
-74 27 -151 29 -59 2 -110 -2 -135 -10z m183 -253 c33 -38 30 -97 -7 -135 -18
-17 -40 -29 -56 -29 -41 0 -85 50 -85 97 0 91 89 132 148 67z"/>
<path d="M2095 3011 c-65 -17 -126 -64 -154 -118 -17 -34 -13 -119 8 -161 25
-49 42 -63 128 -106 79 -39 90 -50 73 -71 -18 -22 -58 -18 -118 10 -30 14 -56
25 -58 25 -2 0 -22 -28 -44 -62 l-40 -63 23 -19 c40 -34 141 -75 207 -85 207
-28 372 81 345 228 -15 79 -51 116 -167 171 -68 33 -79 45 -56 68 18 18 46 15
95 -9 24 -12 45 -20 47 -18 19 23 76 116 76 124 0 12 -24 28 -95 63 -40 21
-67 26 -145 28 -52 2 -108 0 -125 -5z"/>
<path d="M3513 3000 c-18 -11 -38 -29 -45 -40 -18 -28 -26 -25 -42 15 l-15 35
-130 0 -131 0 0 -320 0 -321 138 3 137 3 5 160 c3 94 10 168 17 180 30 53 71
67 157 53 16 -3 22 12 43 116 28 136 28 136 -52 136 -32 0 -61 -7 -82 -20z"/>
<path d="M4282 3002 c-52 -19 -66 -28 -130 -87 -71 -63 -105 -182 -83 -287 17
-85 41 -127 101 -181 118 -106 306 -120 455 -33 25 15 45 31 45 37 0 8 -100
179 -104 179 -1 0 -19 -9 -41 -20 -46 -24 -74 -25 -120 -6 -39 17 -55 42 -55
88 0 47 24 75 72 89 34 9 49 8 87 -8 25 -10 49 -18 53 -18 12 0 109 159 106
174 -2 8 -34 30 -71 50 -63 32 -77 36 -165 38 -75 3 -109 -1 -150 -15z"/>
<path d="M4974 3002 c-84 -29 -159 -94 -198 -170 -37 -72 -35 -215 3 -291 107
-208 433 -248 605 -74 84 86 111 226 66 345 -31 84 -124 164 -229 197 -53 17
-189 13 -247 -7z m162 -222 c15 -6 33 -18 40 -28 17 -21 17 -102 1 -123 -38
-49 -106 -47 -138 4 -32 54 -18 115 32 143 30 16 31 16 65 4z"/>
<path d="M5794 3002 c-138 -49 -224 -171 -224 -320 0 -206 192 -352 423 -320
338 46 413 476 109 625 -49 24 -71 28 -157 30 -75 2 -112 -2 -151 -15z m176
-227 c63 -33 59 -151 -7 -176 -62 -23 -113 16 -113 89 1 52 14 76 51 91 33 13
36 13 69 -4z"/>
<path d="M8005 3006 c-16 -7 -41 -25 -54 -40 -14 -14 -28 -26 -32 -26 -4 0
-13 16 -19 35 l-12 36 -131 -3 -132 -3 -3 -317 -2 -318 140 0 140 0 0 180 c0
114 4 188 12 204 24 53 80 41 98 -22 5 -20 10 -110 10 -199 l0 -163 136 0 136
0 -4 233 -3 233 -33 66 c-42 86 -76 111 -157 115 -36 2 -72 -2 -90 -11z"/>
<path d="M8555 3001 c-45 -20 -94 -72 -127 -134 -20 -37 -23 -56 -23 -167 0
-109 3 -130 22 -166 35 -66 74 -105 128 -130 85 -40 162 -30 223 29 27 26 34
29 42 17 24 -38 0 -121 -44 -155 -38 -29 -104 -34 -150 -10 -15 8 -32 15 -36
15 -5 0 -32 -37 -60 -82 -40 -61 -50 -85 -43 -97 5 -9 40 -32 78 -51 65 -33
76 -35 165 -35 86 0 101 3 161 31 98 47 170 127 197 220 8 28 12 148 12 383
l0 341 -125 0 -125 0 -14 -35 c-18 -41 -22 -43 -47 -11 -43 55 -155 73 -234
37z m248 -231 c50 -40 42 -120 -15 -148 -23 -11 -32 -10 -56 2 -33 17 -42 34
-42 77 0 39 16 68 43 79 33 13 42 12 70 -10z"/>
<path d="M7200 2690 l0 -320 140 0 140 0 -2 318 -3 317 -137 3 -138 3 0 -321z"/>
<path d="M3720 2485 l0 -115 120 0 120 0 0 115 0 115 -120 0 -120 0 0 -115z"/>
</g>
</svg>