<svg width="456" height="456" viewBox="0 0 456 456" fill="none" xmlns="http://www.w3.org/2000/svg">
<g clip-path="url(#clip0_4_44)">
<path fill-rule="evenodd" clip-rule="evenodd" d="M190.68 381.35C227.22 381.35 261.36 371.07 290.36 353.25C315.02 338.1 329.21 350.55 339.92 362.99L412.89 447.74C421.03 457.19 435.48 457.73 444.3 448.91L448.93 444.28C457.75 435.46 457.21 421.01 447.76 412.87L363.01 339.9C350.57 329.19 338.11 315 353.27 290.34C371.09 261.34 381.37 227.2 381.37 190.66C381.37 154.12 371.11 120.05 353.32 91.06C350.3 86.15 349.35 80.28 349.14 74.52C348.77 64.18 344.36 53.59 336.06 45.28C327.76 36.98 317.16 32.57 306.83 32.2C301.07 31.99 295.21 31.04 290.29 28.02C261.28 10.26 227.18 0 190.68 0C138.03 0 90.36 21.34 55.85 55.85C21.34 90.35 0 138.02 0 190.68C0 227.18 10.26 261.29 28.05 290.27C31.07 295.19 32.02 301.05 32.23 306.81C32.6 317.15 37.01 327.74 45.31 336.05C53.61 344.35 64.21 348.76 74.55 349.13C80.31 349.34 86.17 350.29 91.09 353.31C120.08 371.1 154.18 381.36 190.68 381.36V381.35Z" fill="black"/>
<path fill-rule="evenodd" clip-rule="evenodd" d="M398.98 398.98C397.12 400.84 396.95 403.81 398.6 405.86L419.9 432.46C423.23 436.62 429.43 436.96 433.2 433.19C436.97 429.42 436.62 423.22 432.47 419.89L405.87 398.59C403.81 396.94 400.85 397.11 398.99 398.97L398.98 398.98ZM302.31 302.31C240.66 363.96 140.7 363.96 79.04 302.31C17.39 240.66 17.39 140.7 79.04 79.04C140.69 17.39 240.65 17.39 302.31 79.04C363.96 140.69 363.96 240.65 302.31 302.31Z" fill="white"/>
<path d="M322.15 190.68C322.15 263.29 263.29 322.15 190.68 322.15C118.07 322.15 59.21 263.29 59.21 190.68C59.21 118.07 118.07 59.21 190.68 59.21C263.29 59.21 322.15 118.07 322.15 190.68Z" fill="url(#paint0_linear_4_44)"/>
<path d="M256.47 167.22C255.44 165.04 253.31 163.69 250.9 163.69H208.99L208.79 163.43L225.04 100.91C225.78 98.04 224.51 95.21 221.87 93.87C219.23 92.53 216.2 93.16 214.32 95.45L125.94 203.16C124.41 205.02 124.1 207.53 125.13 209.7C126.16 211.88 128.29 213.23 130.7 213.23H172.61L172.81 213.49L156.56 276.01C155.82 278.88 157.09 281.71 159.73 283.05C160.65 283.52 161.62 283.75 162.57 283.75C164.34 283.75 166.06 282.96 167.28 281.47L255.66 173.76C257.19 171.9 257.5 169.39 256.47 167.22Z" fill="white"/>
</g>
<defs>
<linearGradient id="paint0_linear_4_44" x1="190.675" y1="322.152" x2="190.675" y2="59.2076" gradientUnits="userSpaceOnUse">
<stop stop-color="#FF0C1C"/>
<stop offset="1" stop-color="#FFAA00"/>
</linearGradient>
<clipPath id="clip0_4_44">
<rect width="455.19" height="455.19" fill="white"/>
</clipPath>
</defs>
</svg>
