<svg xmlns="http://www.w3.org/2000/svg" viewBox="0 0 1002 1000" version="1.1">
    <path
        d="M 622 175.961 C 615.122 178.134, 592.342 187.775, 582.848 192.532 C 541.042 213.479, 510.321 241.753, 495.230 273.171 C 488.933 286.283, 488.229 288.179, 484.907 301 C 476.917 331.831, 479.059 371.738, 490.581 406.705 C 495.463 421.518, 496.441 427.731, 496.452 444 C 496.466 462.179, 494.793 470.488, 487.796 487 C 485.954 491.347, 478.183 504.980, 476.965 506 C 476.637 506.275, 474.900 508.657, 473.106 511.294 C 468.238 518.448, 453.166 533.821, 441.821 543.206 C 425.260 556.906, 400.509 572.698, 376.250 585.044 C 369.512 588.473, 364 591.822, 364 592.486 C 364 593.506, 371.585 609.862, 372.505 610.824 C 372.853 611.188, 396.997 598.920, 407 593.298 C 418.144 587.034, 448.835 566.391, 452 563.031 C 452.275 562.739, 455.425 560.069, 459 557.098 C 483.050 537.109, 501.495 512.634, 510.742 488.442 C 516.917 472.287, 518.340 464.220, 518.406 445 C 518.444 434.061, 517.985 425.438, 517.182 422 C 514.323 409.754, 513.641 407.202, 511.362 400.208 C 501.590 370.221, 499.262 333.204, 505.562 308 C 508.913 294.594, 516.953 277.028, 524.732 266.116 C 543.867 239.273, 580.171 214.360, 622.500 199.024 C 627.450 197.230, 631.890 195.404, 632.366 194.965 C 633.500 193.922, 627.060 174.974, 625.611 175.086 C 625 175.133, 623.375 175.527, 622 175.961"
        stroke="none" fill="#fc9400" fill-rule="evenodd" />
    <path
        d="M 470.476 178.877 C 450.864 186.762, 440.619 191.724, 426.161 200.339 C 400.979 215.345, 379.829 234.699, 365.278 256.052 C 360.213 263.485, 352.186 280.251, 348.927 290.207 C 343.368 307.182, 341.716 320.609, 342.307 344 C 342.934 368.793, 345.546 384.601, 352.472 405.500 C 358.325 423.163, 360.060 446.834, 356.651 462.516 C 346.903 507.359, 309.578 545.433, 239.500 582.016 C 231.800 586.036, 225.339 589.450, 225.143 589.603 C 224.571 590.049, 233.829 609, 234.619 609 C 235.894 609, 263.401 594.330, 274.058 587.965 C 312.921 564.757, 340.086 540.694, 358.686 513 C 365.617 502.681, 370.224 493.225, 374.310 480.931 C 379.168 466.316, 380.457 457.776, 380.337 441 C 380.230 425.968, 377.759 411.331, 372.984 397.454 C 369.992 388.758, 366.852 374.844, 365.010 362.119 C 363.403 351.019, 363.678 325.502, 365.519 314.891 C 374.601 262.545, 413.820 223.576, 484.117 197.051 C 489.563 194.996, 494.234 193.099, 494.498 192.835 C 495.016 192.317, 489.161 173.971, 488.097 172.776 C 487.742 172.378, 479.813 175.123, 470.476 178.877 M 759 179.860 C 723.143 194.257, 698.911 208.904, 677.643 229.036 C 646.964 258.076, 631.805 291.534, 630.306 333.514 C 629.498 356.143, 633.174 383.536, 639.585 402.651 C 650.325 434.677, 649.123 462.710, 635.866 489.363 C 618.785 523.705, 579.854 557.109, 525 584.489 C 518.675 587.646, 513.359 590.355, 513.188 590.510 C 512.920 590.751, 521.699 608.911, 522.528 609.829 C 523.060 610.419, 550.211 596.223, 562.188 589.093 C 621.620 553.711, 654.818 515.807, 666.214 470.320 C 668.071 462.909, 668.425 458.705, 668.433 444 C 668.442 424.725, 667.376 417.805, 661.496 399 C 654.273 375.899, 651.456 356.133, 652.292 334.412 C 653.453 304.223, 660.859 283.375, 678.548 260.500 C 693.575 241.067, 713.877 225.405, 742.500 211.166 C 754.333 205.279, 776.369 196, 778.515 196 C 779.122 196, 780.440 195.398, 781.446 194.663 C 783.196 193.384, 783.136 192.914, 780.054 183.663 C 777.690 176.567, 776.392 174.005, 775.168 174.019 C 774.250 174.029, 766.975 176.658, 759 179.860 M 887 555.089 C 859.963 556.683, 829.963 560.033, 802.034 564.578 C 744.352 573.964, 671.683 593.076, 621.241 612.126 L 610.981 616 398.047 616 L 185.113 616 183.557 618.223 C 181.114 621.710, 181.600 626.524, 184.750 630.030 C 186.304 631.761, 191.626 634.987, 196.989 637.451 C 202.208 639.849, 206.817 642.416, 207.231 643.156 C 207.645 643.895, 210.204 653.275, 212.919 664 C 231.134 735.961, 231.705 737.762, 237.190 740.598 C 239.484 741.785, 266.116 742, 410.516 742 C 583.573 742, 583.134 742.009, 586.600 738.543 C 589.666 735.476, 593.939 721.941, 611.710 659 L 615.521 645.500 630.711 637.840 C 681.533 612.211, 771.765 587.030, 848.752 576.991 C 871.463 574.029, 896.579 572.027, 911.203 572.013 C 925.171 571.999, 928.353 571.152, 930.575 566.855 C 932.706 562.733, 932.319 560.165, 929.077 556.923 L 926.154 554 913.327 554.147 C 906.272 554.227, 894.425 554.651, 887 555.089"
        stroke="none" fill="#9336fa" fill-rule="evenodd" />
</svg>